<svg width="788" height="485" viewBox="0 0 788 485" fill="none" xmlns="http://www.w3.org/2000/svg">
<path opacity="0.1" d="M787.82 311.517C787.833 324.658 786.246 337.751 783.092 350.507C782.031 354.805 780.798 359.014 779.394 363.134C777.676 368.219 775.684 373.207 773.429 378.077C772.292 380.54 771.091 382.955 769.825 385.32C769.845 398.796 767.074 412.129 761.686 424.478C751.947 446.634 734.579 464.549 712.75 474.957C699.101 481.477 684.185 484.906 669.063 484.999H149.712C126.605 485.049 103.897 478.971 83.8966 467.385L83.589 467.211C80.7403 465.542 77.9629 463.775 75.2569 461.909C69.1683 457.698 63.4481 452.977 58.1578 447.796C50.9975 440.791 44.688 432.964 39.3602 424.478C26.8472 404.587 20.2184 381.553 20.2417 358.046C7.56951 335.785 0.180206 309.12 0.180206 280.466C0.180206 244.314 11.9228 211.336 31.2153 186.371C35.2374 181.155 39.6431 176.247 44.3957 171.689C49.0849 167.178 54.1251 163.048 59.4685 159.337C63.7436 156.365 68.2116 153.681 72.8428 151.303C74.7754 150.319 76.7147 149.388 78.6874 148.525C80.4193 147.755 82.1714 147.038 83.9435 146.362C86.07 145.554 88.2232 144.811 90.4033 144.133C92.5833 143.455 94.7343 142.861 96.8564 142.352C99.977 141.589 103.151 140.969 106.379 140.491C109.054 140.096 111.729 139.821 114.403 139.614C116.53 139.453 118.677 139.366 120.836 139.339H122.007C124.387 139.339 126.755 139.433 129.102 139.594C129.349 139.098 129.617 138.596 129.864 138.108C130.8 136.32 131.77 134.539 132.746 132.799C132.744 132.783 132.744 132.767 132.746 132.752C132.913 132.444 133.081 132.143 133.255 131.848C134.044 130.422 134.866 129.009 135.709 127.61C136.097 126.941 136.478 126.311 136.872 125.682C136.956 125.526 137.047 125.374 137.146 125.227C137.548 124.557 137.956 123.888 138.37 123.218C140.434 119.916 142.581 116.671 144.81 113.484L145.378 112.667C145.726 112.172 146.047 111.69 146.435 111.194C147.358 109.902 148.307 108.604 149.264 107.332C149.932 106.421 150.601 105.517 151.323 104.654C153.062 102.422 154.845 100.19 156.673 97.9588C158.501 95.7272 160.4 93.5246 162.37 91.351C162.638 91.0498 162.905 90.7552 163.186 90.4606L166.042 87.3408C166.182 87.1935 166.302 87.0596 166.436 86.9258C166.777 86.5575 167.105 86.1893 167.473 85.8345C169.004 84.2077 170.575 82.6143 172.154 81.0276C180.185 73.0189 188.742 65.5555 197.765 58.687C198.12 58.4058 198.481 58.138 198.835 57.8702C200.534 56.5915 202.259 55.3262 203.985 54.081C213.474 47.2653 223.394 41.0709 233.682 35.5363C234.391 35.128 235.113 34.7464 235.842 34.3715C245.065 29.4863 254.551 25.1147 264.256 21.2764C269.545 19.1809 274.955 17.2126 280.399 15.4117C284.023 14.2201 287.661 13.0886 291.345 12.0242C297.105 10.3638 302.905 8.87537 308.745 7.55872C325.951 3.6937 343.455 1.30614 361.066 0.422044C366.415 0.149789 371.825 0.00919924 377.295 0.000272816C403.69 -0.0347102 429.981 3.29483 455.535 9.9086C455.799 10.3083 456.161 10.6342 456.585 10.8556C457.01 11.0769 457.484 11.1865 457.963 11.1739H460.209C461.186 11.4417 462.155 11.7095 463.132 11.9907C468.584 13.5617 473.958 15.2778 479.254 17.139L480.592 17.621C493.664 22.2746 506.382 27.8681 518.648 34.3581C529.705 40.1943 540.352 46.7794 550.513 54.0676C552.077 55.1923 553.62 56.326 555.14 57.4686C556.986 56.2858 558.863 55.1522 560.771 54.0676C568.139 49.8662 575.966 46.5259 584.096 44.1124C601.093 39.0767 619.078 38.3725 636.416 42.0638C658.651 46.7836 678.779 58.4996 695.035 75.163C701.655 81.9809 707.547 89.4704 712.616 97.5103C712.984 98.086 713.352 98.6685 713.706 99.2576C718.063 106.373 721.808 113.847 724.9 121.598C725.014 121.886 725.128 122.154 725.228 122.435C728.083 129.693 730.385 137.157 732.116 144.762C732.196 145.151 732.29 145.532 732.37 145.92C733.988 153.281 735.088 160.746 735.66 168.261C735.66 168.529 735.66 168.803 735.713 169.085C735.994 172.972 736.137 176.9 736.141 180.867C736.141 184.416 736.021 187.937 735.8 191.432C735.8 191.813 735.747 192.208 735.713 192.603C735.653 193.614 735.566 194.612 735.479 195.629C740.587 199.754 745.367 204.269 749.776 209.133C751.725 211.262 753.61 213.471 755.434 215.761C760.988 222.73 765.869 230.21 770.012 238.101C781.32 259.471 787.82 284.61 787.82 311.517Z" fill="#6C63FF"/>
<path opacity="0.1" d="M683.25 473.614C683.25 477.766 668.949 481.656 643.994 485H171.965C150.963 485.044 130.324 479.526 112.146 469.007L111.867 468.849C119.039 466.235 131.985 463.797 149.604 461.597L150.394 461.5C158.295 460.533 167.127 459.615 176.778 458.746C177.021 458.746 177.27 458.71 177.514 458.679C185.172 457.998 193.318 457.36 201.953 456.764C202.226 456.764 202.493 456.716 202.767 456.704C206.098 456.465 209.497 456.238 212.966 456.023L214.303 455.938C239.556 454.369 268.262 453.117 299.392 452.291H299.429C303.789 452.169 308.195 452.062 312.648 451.968C317.6 451.851 322.612 451.747 327.685 451.658C331.556 451.573 335.477 451.512 339.409 451.452H339.5C357.241 451.184 375.572 451.05 394.316 451.05C440.666 451.05 484.475 451.895 523.294 453.415H523.403C529.372 453.646 535.231 453.901 540.944 454.163L545.806 454.394C552.253 454.702 558.533 455.032 564.647 455.385C636.548 459.475 683.25 466.119 683.25 473.614Z" fill="#6C63FF"/>
<g opacity="0.2">
<path opacity="0.2" d="M449.533 448.26C449.514 448.916 449.439 449.569 449.308 450.212C445.078 449.539 440.824 448.931 436.545 448.388C436.545 448.218 436.545 448.042 436.545 447.865C436.584 446.043 437.109 444.263 438.064 442.711C439.316 440.729 441.219 439.489 443.316 439.556C445.412 439.623 447.23 440.978 448.354 443.027C449.205 444.636 449.611 446.442 449.533 448.26Z" fill="#3F3D56"/>
<path opacity="0.2" d="M449.882 437.873C450.031 433.172 447.241 429.269 443.651 429.156C440.061 429.042 437.031 432.761 436.882 437.462C436.734 442.163 439.523 446.066 443.113 446.18C446.703 446.293 449.734 442.574 449.882 437.873Z" fill="#3F3D56"/>
<path opacity="0.2" d="M450.214 427.466C450.362 422.765 447.573 418.862 443.983 418.749C440.393 418.635 437.362 422.354 437.214 427.055C437.065 431.756 439.855 435.659 443.445 435.773C447.035 435.886 450.065 432.167 450.214 427.466Z" fill="#3F3D56"/>
<path opacity="0.2" d="M450.539 417.059C450.688 412.358 447.898 408.455 444.308 408.342C440.718 408.228 437.688 411.947 437.539 416.648C437.391 421.349 440.181 425.252 443.77 425.366C447.36 425.479 450.391 421.76 450.539 417.059Z" fill="#3F3D56"/>
<path opacity="0.2" d="M450.865 406.652C451.013 401.951 448.224 398.048 444.634 397.935C441.044 397.821 438.013 401.54 437.865 406.241C437.716 410.942 440.506 414.845 444.096 414.959C447.686 415.072 450.716 411.353 450.865 406.652Z" fill="#3F3D56"/>
<path opacity="0.2" d="M422.244 334.444C421.388 333.285 420.616 332.066 419.934 330.797L437.11 328.529L418.621 328.086C416.971 324.171 416.137 319.962 416.169 315.714C416.202 311.467 417.1 307.27 418.81 303.382L443.194 317.029L420.858 299.498C423.111 295.853 426.092 292.712 429.613 290.271C433.135 287.83 437.122 286.141 441.325 285.31C445.528 284.479 449.858 284.524 454.043 285.442C458.229 286.36 462.18 288.131 465.65 290.645C469.12 293.159 472.034 296.361 474.211 300.052C476.389 303.743 477.781 307.843 478.303 312.096C478.824 316.35 478.463 320.665 477.242 324.773C476.021 328.88 473.967 332.692 471.207 335.97C472.538 337.772 473.669 339.715 474.58 341.763L452.037 352.583L475.941 345.391C477.447 350.359 477.689 355.624 476.647 360.709C475.605 365.794 473.311 370.539 469.973 374.514C473.443 379.224 475.519 384.815 475.962 390.648C476.405 396.482 475.197 402.322 472.477 407.501C469.758 412.681 465.636 416.99 460.582 419.937C455.529 422.884 449.748 424.349 443.902 424.164C438.055 423.98 432.379 422.154 427.521 418.894C422.663 415.635 418.821 411.075 416.433 405.734C414.044 400.394 413.207 394.489 414.017 388.695C414.826 382.901 417.25 377.452 421.01 372.97C416.864 367.342 414.729 360.484 414.95 353.497C415.17 346.509 417.733 339.799 422.225 334.444H422.244Z" fill="#6C63FF"/>
<path opacity="0.1" d="M477.266 355.464C477.054 362.455 474.483 369.169 469.973 374.514C473.443 379.224 475.519 384.815 475.962 390.648C476.405 396.482 475.197 402.322 472.477 407.501C469.758 412.681 465.635 416.99 460.582 419.937C455.529 422.884 449.748 424.349 443.902 424.164C438.055 423.98 432.379 422.154 427.521 418.894C422.663 415.635 418.821 411.075 416.433 405.734C414.044 400.394 413.207 394.489 414.017 388.695C414.826 382.901 417.25 377.452 421.01 372.97C417.017 367.542 477.376 351.969 477.266 355.464Z" fill="black"/>
</g>
<g opacity="0.2">
<path opacity="0.2" d="M357.15 448.26C357.131 448.916 357.055 449.569 356.925 450.212C352.695 449.539 348.441 448.931 344.162 448.388C344.162 448.218 344.162 448.042 344.162 447.865C344.201 446.043 344.726 444.263 345.681 442.711C346.933 440.729 348.836 439.489 350.932 439.556C353.029 439.623 354.847 440.978 355.971 443.027C356.821 444.636 357.228 446.442 357.15 448.26Z" fill="#3F3D56"/>
<path opacity="0.2" d="M357.493 437.876C357.641 433.175 354.851 429.272 351.262 429.158C347.672 429.045 344.641 432.764 344.493 437.465C344.344 442.166 347.134 446.069 350.724 446.182C354.313 446.296 357.344 442.577 357.493 437.876Z" fill="#3F3D56"/>
<path opacity="0.2" d="M357.824 427.469C357.973 422.768 355.183 418.865 351.593 418.751C348.003 418.638 344.973 422.357 344.824 427.058C344.676 431.759 347.465 435.662 351.055 435.775C354.645 435.889 357.676 432.17 357.824 427.469Z" fill="#3F3D56"/>
<path opacity="0.2" d="M358.15 417.062C358.298 412.361 355.509 408.458 351.919 408.344C348.329 408.231 345.298 411.95 345.15 416.651C345.001 421.352 347.791 425.255 351.381 425.368C354.971 425.482 358.001 421.763 358.15 417.062Z" fill="#3F3D56"/>
<path opacity="0.2" d="M358.475 406.655C358.624 401.954 355.834 398.051 352.244 397.937C348.654 397.824 345.624 401.543 345.475 406.244C345.327 410.945 348.116 414.848 351.706 414.961C355.296 415.075 358.327 411.356 358.475 406.655Z" fill="#3F3D56"/>
<path opacity="0.2" d="M329.861 334.444C329.005 333.285 328.233 332.066 327.551 330.797L344.727 328.529L326.238 328.086C324.588 324.171 323.754 319.962 323.786 315.714C323.819 311.467 324.717 307.27 326.427 303.382L350.811 317.029L328.475 299.498C330.728 295.853 333.709 292.712 337.23 290.271C340.752 287.83 344.739 286.141 348.942 285.31C353.145 284.479 357.475 284.524 361.66 285.442C365.845 286.36 369.797 288.131 373.267 290.645C376.737 293.159 379.651 296.361 381.828 300.052C384.005 303.743 385.398 307.843 385.92 312.096C386.441 316.35 386.08 320.665 384.859 324.773C383.638 328.88 381.584 332.692 378.824 335.97C380.155 337.772 381.286 339.715 382.197 341.763L359.654 352.583L383.558 345.391C385.064 350.359 385.306 355.624 384.264 360.709C383.222 365.794 380.928 370.539 377.59 374.514C381.06 379.224 383.136 384.815 383.579 390.648C384.022 396.482 382.814 402.322 380.094 407.501C377.375 412.681 373.252 416.99 368.199 419.937C363.146 422.884 357.365 424.349 351.519 424.164C345.672 423.98 339.996 422.154 335.138 418.894C330.28 415.635 326.438 411.075 324.05 405.734C321.661 400.394 320.824 394.489 321.634 388.695C322.443 382.901 324.867 377.452 328.627 372.97C324.481 367.342 322.346 360.484 322.567 353.497C322.787 346.509 325.35 339.799 329.842 334.444H329.861Z" fill="#6C63FF"/>
<path opacity="0.1" d="M384.883 355.464C384.671 362.455 382.1 369.169 377.59 374.514C381.06 379.224 383.136 384.815 383.579 390.648C384.022 396.482 382.814 402.322 380.094 407.501C377.375 412.681 373.252 416.99 368.199 419.937C363.146 422.884 357.365 424.349 351.519 424.164C345.672 423.98 339.996 422.154 335.138 418.894C330.28 415.635 326.438 411.075 324.05 405.734C321.661 400.394 320.824 394.489 321.634 388.695C322.443 382.901 324.867 377.452 328.627 372.97C324.634 367.542 384.993 351.969 384.883 355.464Z" fill="black"/>
</g>
<g opacity="0.2">
<path opacity="0.2" d="M609.502 454.91C609.455 456.152 609.307 457.389 609.058 458.606C600.914 457.305 592.711 456.142 584.449 455.117C584.449 454.789 584.449 454.455 584.449 454.114C584.526 450.604 585.537 447.177 587.379 444.188C589.81 440.376 593.456 437.988 597.486 438.109C601.516 438.231 605.022 440.851 607.21 444.796C608.86 447.903 609.651 451.395 609.502 454.91Z" fill="#3F3D56"/>
<path opacity="0.2" d="M610.163 434.897C610.449 425.844 605.076 418.328 598.161 418.11C591.246 417.891 585.409 425.053 585.123 434.106C584.837 443.159 590.21 450.675 597.125 450.894C604.04 451.112 609.877 443.95 610.163 434.897Z" fill="#3F3D56"/>
<path opacity="0.2" d="M610.795 414.862C611.081 405.809 605.707 398.293 598.793 398.074C591.878 397.856 586.041 405.017 585.755 414.071C585.468 423.124 590.842 430.64 597.757 430.858C604.672 431.077 610.509 423.915 610.795 414.862Z" fill="#3F3D56"/>
<path opacity="0.2" d="M611.433 394.827C611.719 385.774 606.345 378.257 599.43 378.039C592.516 377.82 586.678 384.982 586.392 394.035C586.106 403.088 591.48 410.604 598.395 410.823C605.309 411.041 611.147 403.88 611.433 394.827Z" fill="#3F3D56"/>
<path opacity="0.2" d="M611.352 373.879C611.623 364.822 606.235 357.311 599.317 357.103C592.399 356.896 586.571 364.07 586.299 373.128C586.027 382.185 591.415 389.696 598.333 389.904C605.252 390.111 611.08 382.937 611.352 373.879Z" fill="#3F3D56"/>
<path opacity="0.2" d="M556.959 235.8C555.319 233.568 553.835 231.226 552.516 228.791L585.58 224.426L549.994 223.569C546.815 216.035 545.207 207.931 545.268 199.753C545.328 191.576 547.056 183.497 550.346 176.01L597.298 202.276L554.303 168.527C558.65 161.527 564.392 155.497 571.172 150.814C577.951 146.131 585.622 142.894 593.707 141.305C601.792 139.717 610.118 139.811 618.165 141.582C626.211 143.352 633.808 146.762 640.479 151.597C647.151 156.432 652.756 162.59 656.944 169.687C661.132 176.784 663.813 184.667 664.822 192.845C665.83 201.024 665.143 209.323 662.804 217.224C660.465 225.126 656.524 232.461 651.226 238.772C653.787 242.246 655.965 245.985 657.723 249.926L614.322 270.77L660.337 256.911C663.237 266.463 663.709 276.588 661.711 286.368C659.712 296.149 655.307 305.277 648.892 312.925C655.572 321.992 659.566 332.755 660.418 343.985C661.27 355.214 658.945 366.457 653.709 376.427C648.473 386.398 640.537 394.693 630.809 400.365C621.081 406.037 609.954 408.857 598.699 408.502C587.444 408.147 576.516 404.632 567.165 398.358C557.814 392.085 550.416 383.306 545.819 373.025C541.221 362.745 539.609 351.378 541.166 340.224C542.723 329.071 547.387 318.58 554.625 309.953C546.647 299.119 542.541 285.918 542.964 272.469C543.387 259.021 548.316 246.105 556.959 235.793V235.8Z" fill="#6C63FF"/>
<path opacity="0.1" d="M662.896 276.259C662.497 289.71 657.572 302.634 648.917 312.938C655.597 322.004 659.591 332.767 660.442 343.997C661.294 355.226 658.969 366.469 653.733 376.439C648.497 386.41 640.561 394.705 630.833 400.377C621.106 406.049 609.978 408.869 598.723 408.514C587.468 408.16 576.541 404.644 567.189 398.371C557.838 392.097 550.44 383.318 545.843 373.037C541.245 362.757 539.633 351.39 541.19 340.237C542.748 329.083 547.412 318.593 554.649 309.965C546.906 299.504 663.108 269.53 662.896 276.259Z" fill="black"/>
</g>
<path d="M131.991 455.98L138.366 455.962H147.355L158.721 271.305L271.276 83.4565L266.384 78.2045V64.9044L144.657 266.953L131.991 455.98Z" fill="#F1C0C0"/>
<path opacity="0.1" d="M139.047 455.962H147.355L158.721 271.305L271.276 83.4564L266.384 78.2045L150.285 268.49L139.047 455.962Z" fill="black"/>
<path d="M113.204 457.518L404.849 479.839L405.098 479.857L687.347 462.497L687.56 462.484V450.564L376.557 444.856L117.088 444.607H115.191L114.985 445.944L113.204 457.518Z" fill="#F1C0C0"/>
<path opacity="0.1" d="M113.204 457.518L404.849 479.839L405.098 479.857L687.347 462.497L687.56 462.266V450.813H687.31L404.849 460.248L117.088 444.607H117.045L116.535 444.941L114.985 445.944L113.204 457.518Z" fill="black"/>
<path opacity="0.1" d="M113.204 457.518L404.849 479.839V460.248L116.535 444.942L114.985 445.944L113.204 457.518Z" fill="black"/>
<path d="M266.347 77.9553L394.924 215.977L390.949 458.758L401.871 460.077L402.053 460.102H412.975L414.282 226.402L655.043 306.835L659.103 450.048L667.892 451.032L670.87 451.367L663.978 296.902L412.294 208.531L274.291 65.0442H266.347V77.9553Z" fill="#F1C0C0"/>
<path opacity="0.1" d="M413.291 221.934L414.282 226.402L655.043 306.835L659.103 450.048L667.892 451.032L660.999 303.856L413.291 221.934Z" fill="black"/>
<path opacity="0.1" d="M266.347 77.9553L394.924 215.977L390.949 458.758L401.871 460.077L404.849 208.032L266.347 65.0442V77.9553Z" fill="black"/>
<path d="M413.759 319.369L502.064 336.76L502.094 336.766L656.757 367.238L663.838 364.399L663.813 363.901L663.351 354.023L413.85 303.601L413.759 319.369Z" fill="#F1C0C0"/>
<path opacity="0.1" d="M502.094 336.766L656.757 367.238L663.838 364.399L663.813 363.901L502.094 336.766Z" fill="black"/>
<path d="M508.008 257.713L510.397 389.219L511.63 456.685L522.504 456.321L529.347 456.09L527.22 259.616L522.504 258.047L521.47 257.713H508.008Z" fill="#F1C0C0"/>
<path opacity="0.1" d="M508.105 257.683V257.713L510.397 389.219L511.63 456.685L522.504 456.321V257.683H508.105Z" fill="black"/>
<path d="M337.689 291.298C338.327 291.644 338.936 292.041 339.512 292.483C340.193 293.079 340.805 293.75 341.336 294.483C343.943 297.856 346.35 301.777 346.095 306.032C346.1 306.651 345.983 307.265 345.75 307.839C345.518 308.413 345.174 308.935 344.739 309.376C343.663 310.293 342.12 310.336 340.71 310.336C339.178 310.336 337.567 310.336 336.242 309.546C334.917 308.756 333.811 307.218 332.243 307.254C332.022 307.291 331.796 307.291 331.575 307.254C331.034 307.078 330.924 306.367 330.572 305.917C329.964 305.108 328.681 305.309 327.727 305.661C326.773 306.014 325.716 306.543 324.773 306.136C324.227 305.847 323.78 305.4 323.491 304.853C321.236 301.206 320.756 296.823 320.331 292.586C320.069 290.009 318.076 281.219 323.576 283.219C326.007 284.094 328.28 285.845 330.493 287.128L337.689 291.298Z" fill="#3F3D56"/>
<path d="M332.255 292.167C332.747 292.52 333.342 292.699 333.947 292.675C334.551 292.651 335.131 292.425 335.592 292.033C336.497 291.215 337.074 290.096 337.215 288.884C337.823 288.696 338.133 289.492 338.521 289.978C339.202 290.805 340.588 290.793 341.208 291.674C341.639 292.282 341.542 293.127 341.846 293.814C342.241 294.702 343.22 295.164 343.888 295.881C344.52 296.665 344.976 297.575 345.225 298.549L346.222 301.54C346.699 302.784 347.006 304.086 347.134 305.412C347.197 306.075 347.127 306.744 346.929 307.379C346.73 308.015 346.408 308.605 345.979 309.114C344.642 310.555 342.448 310.707 340.509 310.664C339.861 310.678 339.215 310.602 338.588 310.439C336.868 309.904 335.768 308.172 335.312 306.427C334.857 304.683 334.905 302.853 334.638 301.066C334.349 299.311 333.838 297.599 333.118 295.972C332.583 294.708 331.113 292.823 331.137 291.48C331.575 291.48 331.891 291.881 332.255 292.167Z" fill="#3F3D56"/>
<path d="M334.437 286.009C334.153 285.146 333.987 284.248 333.945 283.341C333.945 281.517 334.778 279.803 335.616 278.174L328.669 279.116C327.831 279.231 326.895 279.402 326.421 280.101C326.24 280.447 326.146 280.832 326.146 281.222C326.146 281.613 326.24 281.997 326.421 282.344C326.769 283.037 327.046 283.764 327.247 284.514C327.263 285.17 327.338 285.823 327.472 286.465C327.688 286.937 327.991 287.364 328.365 287.723C330.353 289.924 331.842 292.519 333.325 295.091C333.282 295.018 337.513 291.741 337.342 290.671C337.245 290.064 336.024 289.334 335.635 288.751C335.097 287.904 334.693 286.979 334.437 286.009Z" fill="#BE6F72"/>
<path d="M394 262.26V268.247L291.485 288.246L286.167 291.468H267.818V288.094L368.54 263.755L394 262.26Z" fill="#F1C0C0"/>
<path opacity="0.1" d="M394 268.247L291.485 288.246L286.167 291.468H267.818L369.288 269.749L394 268.247Z" fill="black"/>
<path d="M311.694 432.231C310.552 430.848 308.975 429.892 307.22 429.518C305.466 429.145 303.636 429.377 302.03 430.176C301.686 430.338 301.383 430.575 301.143 430.869C300.535 431.72 300.924 432.894 300.979 433.945C301.119 436.51 299.076 438.595 297.241 440.389C296.256 441.349 295.253 442.376 294.81 443.683C294.366 444.99 294.694 446.65 295.886 447.33C296.405 447.591 296.971 447.748 297.551 447.792C299.494 448.171 301.486 448.227 303.446 447.956C305.385 447.586 307.288 446.485 308.126 444.698C308.288 444.214 308.556 443.771 308.91 443.404C309.98 442.559 311.621 443.549 312.837 442.948C313.839 442.449 313.882 441.665 313.894 440.632C313.931 437.775 313.505 434.541 311.694 432.231Z" fill="#6C63FF"/>
<path d="M326.281 432.122C327.028 434.091 327.132 436.237 327.229 438.34C327.284 439.556 327.32 440.857 326.664 441.884C326.007 442.911 324.725 443.452 323.497 443.707C320.963 444.23 318.027 443.738 316.392 441.726C315.14 440.188 314.879 438.079 315.11 436.085C315.304 434.45 315.718 432.535 314.544 431.374C314.241 431.064 313.846 430.845 313.566 430.511C312.958 429.769 313.055 428.651 313.384 427.739C313.811 426.867 314.131 425.946 314.338 424.997C314.386 424.548 322.567 425.314 323.321 425.684C324.348 426.189 324.19 427.034 324.5 428.055C324.932 429.477 325.758 430.76 326.281 432.122Z" fill="#6C63FF"/>
<path d="M327.782 344.796C329.387 345.835 330.006 347.878 330.256 349.774C330.942 354.971 329.739 360.223 329.648 365.469C329.563 372.818 331.69 380.301 329.873 387.419C328.785 391.674 329.709 396.537 328.688 400.835C328.384 402.111 327.825 403.315 327.533 404.591C326.925 407.357 327.563 410.251 328.42 412.956C328.694 413.685 328.868 414.447 328.937 415.223C328.896 416.417 328.593 417.587 328.049 418.651L324.403 427.277C323.995 428.243 322.391 428.402 321.364 428.529C319.431 428.76 317.273 428.924 315.736 427.727C314.198 426.529 313.827 424.523 313.59 422.651C313.136 419.057 312.933 415.435 312.982 411.813C313.049 410.867 312.965 409.917 312.733 408.998C312.399 407.959 311.664 407.059 311.463 405.959C311.208 404.537 311.931 403.139 312.198 401.704C312.382 400.394 312.361 399.063 312.138 397.759C311.901 395.814 311.627 393.869 311.317 391.936C310.88 389.231 311.506 386.562 311.925 383.851C312.32 381.304 311.816 378.709 311.317 376.18C311.36 378.232 311.104 380.28 310.557 382.259C310.235 383.225 309.773 384.149 309.494 385.134C308.248 389.553 310.904 394.191 310.527 398.768C310.351 400.908 309.512 403.023 309.749 405.132C309.913 406.676 310.63 408.093 311.123 409.564C311.615 411.035 311.87 412.719 311.123 414.092C309.147 417.825 310.624 422.9 312.393 426.73C312.752 427.409 313.065 428.112 313.329 428.833C313.852 430.559 313.414 432.413 313.554 434.213C313.045 434.296 312.523 434.262 312.029 434.114C311.536 433.965 311.082 433.706 310.703 433.356C310.436 433.076 310.217 432.748 309.956 432.456C309.225 431.76 308.361 431.22 307.415 430.869C306.86 430.559 306.227 430.413 305.592 430.45C304.924 430.637 304.323 431.01 303.86 431.526C303.259 432.055 302.621 432.54 301.951 432.979C301.666 433.198 301.333 433.346 300.979 433.41C300.801 433.438 300.619 433.409 300.458 433.327C300.298 433.245 300.167 433.115 300.085 432.954C300.047 432.853 300.025 432.746 300.018 432.638C299.793 430.803 299.673 428.956 299.66 427.107C299.66 423.928 295.855 421.739 295.375 418.597C294.992 416.062 295.703 413.478 295.466 410.925C295.351 409.612 294.986 408.324 295.01 407.011C295.01 406.16 295.205 405.327 295.272 404.482C295.327 403.544 295.313 402.603 295.229 401.668L295.041 398.732C294.858 395.832 294.658 392.872 293.515 390.222C292.16 387.127 291.358 383.819 291.145 380.447C291.023 378.32 291.102 376.192 290.859 374.058C290.64 372.131 290.154 370.217 290.294 368.284C290.409 366.788 290.902 365.342 291.017 363.846C291.254 360.971 290.16 358.175 289.303 355.421C288.446 352.668 287.814 349.616 288.939 346.96C289.099 346.524 289.367 346.135 289.717 345.829C290.148 345.544 290.638 345.361 291.151 345.294C301.579 343.103 312.268 342.422 322.889 343.27C324.621 343.368 326.301 343.892 327.782 344.796Z" fill="#3F3D56"/>
<path d="M293.278 280.234C298.656 280.234 303.015 275.875 303.015 270.496C303.015 265.118 298.656 260.759 293.278 260.759C287.901 260.759 283.541 265.118 283.541 270.496C283.541 275.875 287.901 280.234 293.278 280.234Z" fill="#BE6F72"/>
<path d="M291.394 282.66C291.534 283.216 291.534 283.799 291.394 284.356C291.241 284.745 291.025 285.106 290.756 285.426C289.813 286.642 288.77 287.776 287.638 288.818C288.215 290.106 289.253 291.132 290.549 291.693C291.836 292.24 293.185 292.626 294.567 292.842C295.256 293.023 295.974 293.072 296.682 292.987C297.334 292.823 297.952 292.543 298.505 292.161L303.914 288.921C304.731 288.479 305.486 287.933 306.163 287.298C307.155 286.278 307.717 284.915 307.731 283.493C307.756 283.238 307.687 282.983 307.537 282.775C307.329 282.595 307.069 282.486 306.795 282.465C304.893 282.046 303.392 280.502 302.541 278.751C301.772 276.957 301.274 275.058 301.064 273.116L295.296 276.156C294.439 276.612 293.588 277.067 292.701 277.463C292.135 277.718 290.993 277.931 290.592 278.447C289.826 279.402 291.193 281.511 291.394 282.66Z" fill="#BE6F72"/>
<path d="M287.674 287.049C286.853 287.722 286.212 288.589 285.808 289.571C285.432 290.787 285.808 292.07 286.149 293.273C287.744 298.403 288.963 303.643 289.796 308.95C290.306 312.597 290.494 316.299 290.744 319.989C291.254 327.514 291.996 339.513 292.986 346.99C296.633 347.154 300.189 346.091 303.805 345.701C310.564 344.984 317.523 346.625 324.141 345.094C322.537 338.754 320.932 327.927 319.328 321.594C318.618 319.098 318.126 316.546 317.857 313.965C317.717 312.111 317.802 310.251 317.827 308.385C317.881 304.737 317.681 301.09 317.48 297.443C317.249 293.188 317.018 288.933 316.009 284.769C315.939 284.239 315.69 283.748 315.304 283.377C314.696 282.933 313.906 283.091 313.183 283.189C310.968 283.47 308.727 282.939 306.874 281.693C306.072 281.146 304.996 280.478 304.249 281.085C303.93 281.452 303.719 281.901 303.641 282.38C303.31 283.24 302.8 284.02 302.143 284.666C301.487 285.313 300.701 285.812 299.836 286.131C298.104 286.758 296.29 287.131 294.451 287.237C293.888 287.358 293.302 287.292 292.78 287.049C291.917 286.52 291.856 284.617 290.768 284.49C289.814 284.38 288.319 286.435 287.674 287.049Z" fill="#3F3D56"/>
<path d="M302.054 301.893C299.812 299.747 298.827 296.635 297.192 293.99C296.079 292.212 294.657 290.648 292.992 289.371C292.156 288.818 291.389 288.167 290.707 287.432C290.13 286.72 289.692 285.772 288.817 285.499C288.455 285.42 288.08 285.43 287.723 285.529C287.366 285.627 287.039 285.811 286.769 286.064C286.233 286.574 285.726 287.114 285.249 287.681C282.672 290.349 278.144 290.72 276.102 293.808C275.551 294.463 275.177 295.247 275.014 296.088C274.426 300.582 275.588 305.13 278.26 308.792C278.777 309.641 279.571 310.285 280.509 310.615C280.381 311.749 280.532 312.896 280.946 313.959C282.072 317.806 283.454 321.573 285.085 325.235C284.695 326.667 284.423 328.129 284.271 329.605C283.845 333.319 284.24 337.088 283.839 340.808C283.511 343.847 282.624 346.808 282.593 349.853C282.593 350.339 282.636 350.917 283.055 351.166C283.278 351.281 283.528 351.333 283.778 351.318L291.254 351.543C295.594 351.671 299.976 351.798 304.249 350.996C304.818 350.912 305.369 350.737 305.884 350.479C307.33 349.671 307.81 347.847 308.041 346.224C308.343 344.119 308.463 341.992 308.4 339.866C309.305 342.729 310.381 345.689 313.116 346.929C314.563 347.586 316.216 347.537 317.802 347.495C321.221 347.342 324.629 346.991 328.007 346.443C328.215 346.469 328.426 346.446 328.624 346.375C328.822 346.305 329 346.189 329.145 346.037C329.289 345.885 329.397 345.701 329.458 345.501C329.519 345.3 329.532 345.088 329.496 344.881L329.532 341.562C329.605 334.821 327.934 328.377 327.284 321.666C327.077 319.551 327.095 317.411 326.579 315.339C326.366 314.469 326.056 313.618 325.867 312.743C325.705 311.886 325.604 311.019 325.564 310.147L325.089 303.461C324.865 300.367 324.542 297.382 324.305 294.294C324.175 291.287 323.739 288.302 323.005 285.383C322.476 283.559 321.376 281.493 319.474 281.268C318.459 281.152 317.474 281.596 316.508 281.906C314.132 282.654 311.583 282.643 309.214 281.876C308.482 281.587 307.72 281.383 306.941 281.268C306.549 281.214 306.15 281.266 305.785 281.418C305.42 281.57 305.101 281.816 304.862 282.131C304.627 282.606 304.516 283.133 304.54 283.663C304.255 289.735 303.726 295.99 302.054 301.893Z" fill="#6C63FF"/>
<path d="M292.275 302.075C289.473 299.121 286.599 296.112 282.988 294.234C281.566 293.492 279.949 292.933 278.375 293.212C276.801 293.492 275.336 294.86 275.409 296.458C275.458 297.449 276.06 298.324 276.248 299.297C276.467 300.391 276.151 301.558 276.491 302.616C276.768 303.313 277.181 303.947 277.707 304.482L282.01 309.582C283.833 311.71 285.657 313.868 288.003 315.339C290.349 316.81 293.388 317.497 295.965 316.451C297.798 315.599 299.323 314.199 300.328 312.445C301.398 310.743 302.152 308.883 303.155 307.126C304.715 304.319 306.775 301.821 309.232 299.753C307.968 299.425 306.382 298.963 305.586 297.929C305.359 297.601 305.166 297.251 305.008 296.884L304.024 294.756C303.689 294.739 303.354 294.791 303.04 294.909C302.726 295.027 302.441 295.209 302.2 295.443C301.778 295.931 301.325 296.392 300.845 296.823C299.988 297.467 298.827 297.644 298.049 298.379C297.748 298.695 297.476 299.037 297.235 299.4C296.646 300.174 295.9 300.813 295.044 301.274C294.189 301.735 293.245 302.008 292.275 302.075Z" fill="#3F3D56"/>
<path d="M309.457 289.365C311.566 285.517 311.469 280.903 312.071 276.557C312.136 275.406 312.54 274.3 313.232 273.378C314.447 272.004 316.593 271.986 318.428 272.162C318.969 272.223 319.644 272.478 319.613 273.019C319.571 273.213 319.476 273.392 319.34 273.536C317.561 275.832 316.515 278.611 316.337 281.511C317.292 282.174 318.769 280.812 319.686 281.511C320.294 282.022 320.015 283.031 319.65 283.76C318.803 285.45 317.93 287.128 317.03 288.793C316.312 290.261 315.376 291.612 314.253 292.799C313.481 293.541 312.575 294.124 311.791 294.854C309.968 296.562 308.868 298.975 306.984 300.64C306.824 300.813 306.609 300.923 306.376 300.95C306.136 300.933 305.91 300.832 305.738 300.665C304.797 299.899 304.016 298.955 303.44 297.887C302.723 296.562 302.833 296.173 303.963 295.237C306.078 293.565 308.138 291.772 309.457 289.365Z" fill="#BE6F72"/>
<path d="M288.75 299.461C289.115 299.686 289.565 299.941 289.966 299.753C290.13 299.654 290.269 299.519 290.373 299.358C291.068 298.431 291.647 297.422 292.099 296.355C292.177 296.204 292.22 296.038 292.227 295.869C292.227 295.48 291.88 295.194 291.558 294.969C289.832 293.869 287.976 292.987 286.033 292.343C284.429 291.735 282.751 291.206 281.05 291.358C280.41 291.401 279.786 291.573 279.215 291.864C278.643 292.154 278.137 292.557 277.725 293.048C276.509 294.61 278.545 295.085 279.822 295.65C282.776 296.993 285.973 297.771 288.75 299.461Z" fill="#6C63FF"/>
<path opacity="0.1" d="M286.836 309.795C286.815 309.934 286.827 310.075 286.872 310.208C286.916 310.341 286.991 310.462 287.091 310.561C287.267 309.698 287.036 308.786 287.218 307.917C287.486 306.61 288.756 305.625 288.866 304.312C286.538 303.856 286.854 308.385 286.836 309.795Z" fill="black"/>
<path opacity="0.2" d="M394 262.26V268.247L369.288 269.749L368.54 263.755L394 262.26Z" fill="black"/>
<path d="M284.514 271.943C286.058 270.685 285.164 268.047 286.21 266.357C286.817 265.433 287.845 264.947 288.853 264.533C290.071 263.963 291.376 263.602 292.713 263.463C293.383 263.399 294.058 263.486 294.689 263.719C295.321 263.952 295.892 264.323 296.36 264.807C296.755 265.257 297.022 265.804 297.393 266.272C297.852 266.818 298.45 267.229 299.125 267.463C299.799 267.696 300.523 267.742 301.222 267.597C302.03 267.415 302.869 266.801 302.814 265.974C302.723 265.471 302.466 265.013 302.085 264.673L300.347 262.746C298.371 260.558 296.177 258.236 293.278 257.689C291.26 257.306 289.194 257.847 287.249 258.497C286.465 258.759 285.584 259.148 285.365 259.944C285.219 260.491 285.438 261.087 285.31 261.64C285.061 262.74 283.651 263.111 282.994 264.035C282.338 264.959 282.539 266.053 282.35 267.074C282.162 268.095 281.615 269.092 281.548 270.15C281.505 270.788 281.827 271.974 282.545 272.205C283.262 272.436 284.07 271.183 284.514 271.943Z" fill="#3F3D56"/>
<path d="M302.225 265.099C301.712 262.424 300.607 259.898 298.991 257.707C297.554 255.659 295.555 254.072 293.236 253.136C292.076 252.683 290.829 252.498 289.588 252.596C288.347 252.694 287.144 253.072 286.07 253.701C284.475 254.84 283.234 256.405 282.49 258.218C280.916 261.609 280.332 265.755 282.162 269.013C282.891 268.126 284.143 268.527 285.249 268.205C286.635 267.81 287.808 266.886 289.127 266.308C293.108 264.552 297.97 265.974 302.225 265.099Z" fill="#FED253"/>
<path opacity="0.1" d="M283.092 264.91C282.952 263.816 282.861 262.546 283.639 261.767C283.677 261.72 283.727 261.682 283.782 261.656C283.838 261.631 283.899 261.619 283.961 261.622C284.015 261.639 284.065 261.668 284.108 261.705C284.151 261.743 284.185 261.789 284.21 261.84C284.659 262.549 285.042 263.298 285.353 264.077C284.9 263.973 284.426 264.007 283.992 264.175C283.559 264.343 283.186 264.637 282.921 265.02" fill="black"/>
<path opacity="0.1" d="M297.296 261.822L297.077 259.652C297.041 259.473 297.056 259.288 297.119 259.117C297.211 258.974 297.352 258.87 297.516 258.825C297.68 258.78 297.855 258.798 298.007 258.874C298.306 259.04 298.552 259.286 298.718 259.585C299.224 260.362 299.644 261.192 299.97 262.059C298.991 261.871 297.984 261.883 297.01 262.096" fill="black"/>
<path opacity="0.1" d="M302.735 349.896V354.856L298.548 355.136H276.522V349.896H302.735Z" fill="black"/>
<path d="M302.735 349.896V355.136H276.522L206.882 267.889V263.767H221.481L302.735 349.896Z" fill="#F1C0C0"/>
<path opacity="0.1" d="M302.735 349.896V355.136H276.522L206.882 267.889V263.767H221.481L302.735 349.896Z" fill="black"/>
<path opacity="0.1" d="M302.735 349.896V355.136H276.522L206.882 267.889V263.767L276.898 349.896H302.735Z" fill="black"/>
<path d="M216.011 437.343C216.056 437.59 216.051 437.843 215.994 438.087C215.938 438.332 215.832 438.562 215.682 438.763C215.533 438.965 215.343 439.133 215.126 439.258C214.908 439.383 214.667 439.461 214.418 439.489C212.729 440.06 210.936 440.626 209.738 441.92C208.541 443.215 208.304 445.616 209.738 446.668C210.471 447.11 211.313 447.34 212.169 447.33C214.923 447.519 217.791 447.482 220.289 446.315C222.076 445.489 223.76 444.078 225.723 444.206C226.738 444.267 227.82 444.741 228.725 444.279C229.631 443.817 229.886 442.528 229.892 441.452C229.915 439.206 229.577 436.971 228.89 434.833C228.798 434.541 224.933 434.316 224.471 434.225L219.785 433.617C218.898 433.502 216.983 432.833 216.284 433.574C215.585 434.316 216.011 436.462 216.011 437.343Z" fill="#6C63FF"/>
<path d="M243.975 422.171C244.173 423.266 244.495 424.334 244.935 425.356C245.585 427.009 246.418 428.766 248.01 429.569C249.457 430.292 251.232 430.031 252.703 429.344C253.316 429.089 253.854 428.681 254.265 428.158C254.739 427.331 254.951 426.379 254.872 425.429C254.872 423.077 254.733 420.645 253.657 418.554C252.733 416.73 251.122 415.162 251.098 413.144L245.561 414.214C245.265 414.242 244.982 414.354 244.747 414.536C244.571 414.721 244.449 414.95 244.394 415.199C243.803 417.473 243.661 419.842 243.975 422.171Z" fill="#6C63FF"/>
<path d="M177.854 364.424C177.623 366.381 177.72 368.478 178.741 370.168C179.762 371.858 181.914 372.976 183.774 372.302C183.869 372.277 183.959 372.234 184.037 372.175C184.115 372.115 184.181 372.04 184.23 371.955C184.279 371.75 184.251 371.533 184.151 371.347C183.33 369.156 183.397 366.73 184.339 364.588C184.461 364.308 184.722 363.98 185.008 364.089C185.127 364.15 185.223 364.248 185.281 364.369C185.575 364.878 185.723 365.459 185.707 366.047C185.621 366.579 185.604 367.121 185.658 367.658C185.773 368.18 186.333 368.673 186.819 368.448C186.959 368.361 187.081 368.247 187.176 368.113C187.271 367.978 187.338 367.825 187.372 367.664C188.727 363.743 188.113 359.457 187.493 355.354C187.499 355.26 187.483 355.166 187.448 355.078C187.413 354.991 187.359 354.912 187.29 354.848C187.221 354.783 187.138 354.735 187.049 354.706C186.959 354.677 186.864 354.668 186.77 354.68C183.901 354.394 182.333 353.707 180.692 356.376C179.282 358.625 177.854 361.719 177.854 364.424Z" fill="#6C63FF"/>
<path d="M211.391 354.449C210.541 357.986 209.684 361.567 209.629 365.202C209.644 367.466 209.814 369.727 210.139 371.967L210.778 377.231C210.996 379.006 211.209 380.775 211.519 382.532C211.717 383.437 211.825 384.359 211.841 385.286C211.782 386.199 211.637 387.104 211.41 387.991C211.027 389.852 210.814 391.744 210.772 393.644C210.705 396.683 211.081 399.722 211.319 402.762C211.792 408.818 211.721 414.905 211.106 420.949C210.86 422.58 211.214 424.245 212.103 425.636C212.463 426.074 212.76 426.561 212.984 427.082C213.44 428.474 212.376 429.866 212.103 431.295C211.928 432.409 212.202 433.547 212.865 434.458C213.528 435.37 214.526 435.981 215.64 436.158C220.502 436.735 225.498 436.474 229.88 438.699C230.342 437.349 229.333 435.817 229.795 434.444C230.087 433.593 230.889 433.039 231.436 432.322C232.171 431.229 232.537 429.93 232.482 428.614C232.503 426.897 232.198 425.191 231.582 423.587C231.065 422.25 230.324 420.931 230.366 419.496C230.366 418.791 230.616 418.05 230.33 417.399C230.134 417.025 229.868 416.693 229.546 416.42C227.729 414.43 226.613 411.901 226.367 409.217C226.13 406.554 226.216 403.872 226.623 401.23C226.92 398.713 227.321 396.057 228.92 394.094C228.179 388.14 228.614 382.099 230.202 376.314C230.36 375.779 230.61 375.159 231.157 375.031C231.374 375.009 231.593 375.039 231.796 375.119C232 375.2 232.18 375.328 232.324 375.493C233.278 376.387 233.734 377.681 234.147 378.921C234.603 380.265 235.065 381.699 234.718 383.073C234.572 383.681 234.281 384.216 234.11 384.799C233.741 385.972 233.805 387.239 234.293 388.368C234.53 388.78 234.679 389.238 234.73 389.711C234.674 390.117 234.551 390.512 234.366 390.878C234.14 391.597 234.069 392.356 234.156 393.105C234.242 393.854 234.486 394.576 234.87 395.224C235.645 396.515 236.601 397.688 237.709 398.707C237.179 401.04 237.316 403.475 238.104 405.734C238.16 405.836 238.197 405.948 238.21 406.064C238.224 406.179 238.214 406.297 238.183 406.409C238.073 406.64 237.794 406.725 237.575 406.889C236.967 407.388 237.344 408.33 237.751 408.98C238.867 410.765 240.1 412.475 241.44 414.098C242.656 415.551 242.546 418.353 244.358 418.876C245.119 419.041 245.906 419.041 246.667 418.876C248.454 418.603 250.448 418.086 251.323 416.506C251.681 415.855 251.827 415.065 252.386 414.579C252.946 414.092 253.669 414.007 253.979 413.424C254.289 412.84 253.942 412.074 254.046 411.4C254.149 410.725 254.739 410.184 254.927 409.473C255.377 407.831 253.462 406.482 253.201 404.804C252.824 402.373 255.887 400.549 255.76 398.118C255.492 392.835 255.322 387.529 255.049 382.246C254.705 377.515 254.657 372.766 254.903 368.028C255.115 365.08 255.51 361.992 254.429 359.251C252.873 355.385 248.582 353.215 244.431 352.801C240.279 352.388 236.14 353.373 232.026 354.017C225.197 355.07 218.259 355.215 211.391 354.449Z" fill="#3F3D56"/>
<path d="M223.729 296.349C229.107 296.349 233.466 291.989 233.466 286.611C233.466 281.233 229.107 276.873 223.729 276.873C218.352 276.873 213.993 281.233 213.993 286.611C213.993 291.989 218.352 296.349 223.729 296.349Z" fill="#FBBEBE"/>
<path d="M219.767 298.166C219.436 298.937 218.88 299.589 218.171 300.037C217.463 300.485 216.635 300.708 215.798 300.677C215.445 302.136 216.29 303.607 217.257 304.756C219.263 307.091 221.856 308.849 224.769 309.848C227.681 310.847 230.807 311.051 233.825 310.439C234.999 310.229 236.113 309.764 237.089 309.078C238.404 307.979 239.287 306.45 239.58 304.762C239.86 303.085 239.94 301.381 239.817 299.686C239.852 299.351 239.756 299.016 239.55 298.75C239.307 298.562 239.007 298.463 238.699 298.47C236.645 298.288 234.499 298.209 232.694 297.2C230.889 296.191 229.607 293.911 230.476 292.039C230.336 292.331 226.787 292.471 226.319 292.532C224.854 292.738 223.389 292.969 221.93 293.237C221.229 293.275 220.537 293.406 219.87 293.626C218.989 294.082 219.317 293.857 219.524 294.683C219.834 295.948 220.289 296.853 219.767 298.166Z" fill="#FBBEBE"/>
<path d="M227.176 304.087C225.864 304.102 224.556 303.957 223.28 303.655C221.991 303.354 220.855 302.596 220.083 301.522C219.633 300.841 219.341 299.984 218.624 299.601C217.451 298.993 216.114 300.02 215.178 300.963C214.326 301.892 213.338 302.687 212.248 303.321C210.948 304.008 209.428 304.251 208.201 305.06C207.241 305.784 206.418 306.674 205.769 307.686L197.157 319.417C193.699 324.134 190.69 329.198 187.609 334.176C184.941 338.486 183.543 343.446 181.531 348.096C181.372 348.381 181.306 348.708 181.343 349.033C181.416 349.349 181.798 349.604 182.066 349.422C181.16 350.321 181.956 351.853 181.744 353.117C181.502 354.002 180.998 354.793 180.297 355.385C181.635 355.21 182.993 355.274 184.309 355.573C185.668 355.959 186.951 356.575 188.101 357.397C188.837 357.281 188.77 355.974 189.317 355.488C189.645 355.202 190.131 355.239 190.563 355.154C192.185 354.838 192.83 352.886 194.076 351.786C195.115 350.868 196.586 350.57 197.686 349.707C199.473 348.303 199.856 345.805 200.792 343.732C201.588 341.975 202.84 340.443 203.539 338.644C203.995 337.477 204.214 336.213 204.864 335.137C205.903 333.398 207.86 332.474 209.726 331.642C210.905 331.113 212.157 330.566 213.428 330.651C213.361 333.477 213.002 336.261 213.616 339.021C213.829 339.994 214.126 340.942 214.382 341.908C215.543 346.261 215.816 350.795 215.871 355.281C218.663 354.642 221.515 354.3 224.38 354.26C226.635 354.193 228.883 354.485 231.138 354.443C233.813 354.394 236.456 353.877 239.131 353.695C241.805 353.513 244.601 353.695 246.965 354.911C246.773 351.058 246.881 347.197 247.287 343.361L247.931 337.319C248.077 335.564 248.347 333.821 248.74 332.104C249.092 330.718 249.603 329.38 249.992 328C251.359 323.138 251.11 317.946 250.849 312.883C250.715 310.281 249.712 307.722 248.533 305.406C248.106 304.546 247.619 303.717 247.074 302.926C245.65 300.963 243.751 299.392 241.555 298.361C239.359 297.33 236.938 296.872 234.518 297.03C234.208 297.039 233.904 297.105 233.618 297.224C233.105 297.553 232.704 298.03 232.469 298.592C231.212 300.852 229.387 302.746 227.176 304.087Z" fill="#3F3D56"/>
<path d="M215.166 289.839C215.439 289.231 216.175 289.006 216.624 288.52C217.488 287.596 217.099 286.119 217.232 284.872C217.451 283.049 218.964 281.523 220.697 280.873C222.463 280.306 224.343 280.187 226.167 280.526C227.045 280.59 227.893 280.872 228.634 281.347C228.95 281.578 229.242 281.876 229.54 282.088C230.083 282.417 230.732 282.52 231.35 282.375C231.968 282.231 232.505 281.851 232.846 281.316C230.695 278.727 228.312 275.992 225.042 275.195C223.921 274.966 222.777 274.858 221.633 274.873C220.119 274.843 218.557 274.818 217.159 275.396C215.257 276.18 213.92 277.985 213.233 279.931C212.632 281.902 212.311 283.948 212.279 286.009C212.154 287.384 212.154 288.768 212.279 290.143C212.514 292.02 213.211 293.81 214.309 295.352C214.457 295.591 214.667 295.787 214.917 295.917C217.688 297.133 214.941 290.343 215.166 289.839Z" fill="#3F3D56"/>
<path d="M232.53 279.815C232.196 276.952 230.154 274.587 227.984 272.685C226.235 271.035 224.152 269.781 221.876 269.007C219.584 268.332 216.947 268.478 214.983 269.846C213.403 270.946 212.4 272.697 211.628 274.46C210.614 276.54 210.112 278.833 210.164 281.146C210.316 283.444 211.434 285.772 213.428 286.933C214.145 285.875 215.391 285.328 216.588 284.897C221.807 282.917 227.128 281.22 232.53 279.815Z" fill="#FED253"/>
<path opacity="0.1" d="M214.096 278.624C214.291 278.624 214.418 278.824 214.515 278.988C215.01 279.759 215.435 280.573 215.786 281.42C215.075 281.572 213.853 281.742 213.5 281.116C213.312 280.8 213.537 278.593 214.096 278.624Z" fill="black"/>
<path opacity="0.1" d="M227.947 277.25C227.802 277.39 227.631 277.104 227.631 276.897V274.539C227.627 274.473 227.642 274.408 227.674 274.35C227.699 274.321 227.73 274.298 227.764 274.281C227.799 274.265 227.836 274.255 227.875 274.253C228.367 274.198 228.774 274.618 229.09 275.019C229.57 275.669 229.987 276.363 230.336 277.092L227.765 277.013" fill="black"/>
<path d="M260.032 316.305C260.592 315.774 261.189 315.285 261.819 314.84C263.503 313.716 265.539 313.272 267.429 312.555C269.319 311.837 271.24 310.676 271.975 308.792C272.343 307.614 272.463 306.372 272.328 305.145C272.345 304.631 272.254 304.119 272.06 303.643C271.829 303.223 271.5 302.864 271.1 302.598C268.535 300.701 265.095 300.549 261.91 300.744C254.889 301.179 248.007 302.898 241.604 305.813C241.266 305.925 240.969 306.137 240.753 306.421C240.629 306.685 240.572 306.975 240.589 307.266C240.476 309.059 240.709 310.856 241.276 312.561C242.115 314.725 243.841 316.469 244.564 318.676C244.892 319.667 245.002 320.718 245.288 321.715C245.522 322.745 246.131 323.65 246.995 324.256C249.396 325.691 251.663 323.764 253.328 322.268L260.032 316.305Z" fill="#3F3D56"/>
<path d="M228.592 324.724L225.51 318.001C225.058 317.069 224.669 316.109 224.343 315.126C223.991 313.953 223.821 312.737 223.492 311.558C222.411 307.631 219.682 304.361 218.351 300.513C218.266 300.165 218.095 299.845 217.852 299.583C217.658 299.445 217.436 299.352 217.202 299.31C216.967 299.268 216.727 299.278 216.497 299.34C214.637 299.662 213.184 301.078 211.483 301.881C210.693 302.245 209.842 302.488 209.052 302.908C208.657 303.095 208.307 303.365 208.026 303.7C207.744 304.034 207.539 304.426 207.423 304.847C207.234 305.777 207.696 306.67 208.085 307.576C209.738 311.308 210.115 315.478 210.188 319.563C210.243 322.311 210.103 325.259 208.48 327.466C205.362 331.721 207.356 337.969 208.523 343.118C208.663 343.726 208.827 344.382 208.924 345.027C209.027 345.833 209.073 346.645 209.064 347.458C209.064 350.188 208.912 353.002 207.769 355.476C208.897 356.076 210.14 356.429 211.416 356.509C214.945 356.959 218.488 357.275 222.046 357.458C223.161 357.562 224.284 357.505 225.383 357.287C226.687 356.935 227.836 356.158 228.65 355.079C229.463 354 229.894 352.681 229.874 351.33C230.069 353.014 230.427 354.844 231.649 356.011C232.871 357.178 234.651 357.354 236.311 357.445C240.993 357.694 245.689 357.562 250.35 357.05C250.648 357.037 250.94 356.969 251.213 356.85C252.113 356.4 252.162 355.16 252.089 354.163C251.955 352.297 251.815 350.431 251.59 348.577C251.4 347.395 251.302 346.2 251.299 345.002C251.391 343.771 251.595 342.55 251.906 341.355C252.721 337.562 253.365 333.69 253.091 329.806C252.983 328.86 252.945 327.907 252.976 326.955C253.134 324.809 254.264 322.767 254.052 320.633C253.444 314.36 252.952 307.923 251.201 301.868C250.885 300.786 250.484 299.625 249.542 299.005C248.326 298.191 246.619 298.616 245.227 298.1C244.574 297.796 243.953 297.427 243.373 296.999C242.114 296.212 240.67 295.767 239.185 295.711C238.067 295.668 236.821 295.917 236.146 296.817C235.834 297.323 235.627 297.888 235.539 298.476C234.657 302.184 233.624 305.85 232.591 309.515L231.6 313.029L228.944 322.463C228.683 323.466 228.859 323.776 228.592 324.724Z" fill="#6C63FF"/>
<path d="M244.133 287.918L302.924 349.707V354.947H276.71L232.53 297.279" fill="#F1C0C0"/>
<path opacity="0.1" d="M244.133 287.918L302.924 349.707V354.947H276.71L232.53 297.279" fill="black"/>
<path opacity="0.1" d="M233.466 296.464L233.655 296.531L277.087 349.707H302.924V354.947H276.71L232.53 297.279L233.466 296.464Z" fill="black"/>
<path d="M240.231 297.765C238.104 298.695 235.739 299.887 235.101 302.124C234.975 302.516 234.948 302.934 235.022 303.339C235.178 303.816 235.474 304.235 235.872 304.54C236.27 304.845 236.752 305.022 237.253 305.047C238.253 305.072 239.249 304.89 240.176 304.513L252.727 300.367C253.067 300.258 253.456 300.093 253.541 299.759C253.563 299.549 253.521 299.337 253.42 299.151C253.031 298.203 252.648 296.264 251.833 295.601C251.165 295.066 249.84 295.255 249.031 295.267C245.92 295.291 242.996 296.55 240.231 297.765Z" fill="#6C63FF"/>
<path d="M251.42 300.859C253.534 300.853 255.637 301.179 257.65 301.826C259.672 302.482 261.463 303.706 262.81 305.351C263.202 305.811 263.481 306.357 263.624 306.944C263.746 307.552 265.727 307.917 265.29 308.33C266.621 308.117 266.305 308.743 267.654 308.731C269.003 308.719 270.462 308.373 271.27 307.297C271.832 306.413 272.082 305.367 271.981 304.324C271.999 303.602 271.862 302.885 271.58 302.221C270.972 300.944 269.575 300.258 268.286 299.668L257.431 294.702C256.801 294.367 256.125 294.127 255.425 293.99C254.836 293.935 254.243 293.949 253.657 294.033L248.74 294.598C249.815 295.294 250.69 296.258 251.28 297.396C251.869 298.533 252.152 299.804 252.101 301.084" fill="#3F3D56"/>
</svg>
